<?xml version="1.0" standalone="no"?><!DOCTYPE svg PUBLIC "-//W3C//DTD SVG 1.1//EN" "http://www.w3.org/Graphics/SVG/1.1/DTD/svg11.dtd"><svg t="1758454733116" class="icon" viewBox="0 0 1024 1024" version="1.1" xmlns="http://www.w3.org/2000/svg" p-id="39918" xmlns:xlink="http://www.w3.org/1999/xlink" width="16" height="16"><path d="M127.204969 63.602484h763.229814v95.403727H127.204969V63.602484z m0 795.031056h318.012422V954.037267H127.204969v-95.403727z" fill="#ffffff" p-id="39919"></path><path d="M152.645963 127.204969v795.031056H63.602484V127.204969h89.043479z m763.229813 0v330.732919H826.832298V127.204969h89.043478z" fill="#ffffff" p-id="39920"></path><path d="M667.826087 426.136646c6.360248-6.360248 12.720497-19.080745 12.720497-31.801242 0-25.440994-19.080745-50.881988-50.881988-50.881988-12.720497 0-25.440994 6.360248-31.801242 12.720497L349.813665 604.223602c-6.360248 6.360248-12.720497 19.080745-12.720497 31.801243 0 25.440994 19.080745 50.881988 50.881987 50.881987 12.720497 0 25.440994-6.360248 31.801243-12.720497l248.049689-248.049689z" fill="#ffffff" p-id="39921"></path><path d="M417.041491 354.202236c-6.360248-6.360248-19.080745-12.720497-31.801243-12.720497-25.440994 0-50.881988 19.080745-50.881987 50.881988 0 12.720497 6.360248 25.440994 12.720497 31.801242l248.049689 248.049689c6.360248 6.360248 19.080745 12.720497 31.801242 12.720497 25.440994 0 50.881988-19.080745 50.881988-50.881987 0-12.720497-6.360248-25.440994-12.720497-31.801243l-248.049689-248.049689z" fill="#ffffff" p-id="39922"></path><path d="M1011.279503 572.42236c0 6.360248 0 6.360248 6.360249 12.720497v25.440994c0 6.360248-6.360248 12.720497-6.360249 12.720497l-12.720497 12.720497c-6.360248 6.360248-6.360248 6.360248-12.720497 6.360248l-6.360248 6.360249-108.124224-108.124224c6.360248-6.360248 12.720497-6.360248 19.080746-12.720497 6.360248-6.360248 12.720497-12.720497 19.080745-12.720497 6.360248-6.360248 12.720497-6.360248 19.080745-6.360248h38.161491c6.360248 0 12.720497 6.360248 12.720497 6.360248 6.360248 6.360248 19.080745 12.720497 25.440994 25.440994-6.360248 12.720497 0 25.440994 6.360248 31.801242z m-451.57764 286.21118l19.080746-19.080745 31.801242-31.801242L826.832298 591.503106l108.124224 108.124223-127.204969 127.204969-44.521739 50.881988-44.521739 44.521739-31.801243 31.801242-12.720497 12.720497-12.720496 12.720497c-6.360248 6.360248-12.720497 6.360248-12.720497 6.360248-6.360248 0-12.720497 6.360248-25.440994 12.720497s-19.080745 6.360248-31.801242 12.720497-19.080745 6.360248-31.801243 12.720497c-12.720497-6.360248-19.080745-6.360248-25.440993-6.360248-12.720497 0-19.080745 0-19.080746-6.360249-6.360248 0-6.360248-12.720497-6.360248-19.080745 0-6.360248 0-12.720497 6.360248-25.440994 0-12.720497 6.360248-19.080745 6.360249-31.801242 6.360248-12.720497 6.360248-19.080745 12.720497-31.801242 0-6.360248 6.360248-12.720497 6.360248-19.080746 0-6.360248 6.360248-12.720497 6.360248-12.720497l12.720497-12.720497z m0 0" fill="#ffffff" p-id="39923"></path><path d="M101.763975 101.763975m-101.763975 0a101.763975 101.763975 0 1 0 203.52795 0 101.763975 101.763975 0 1 0-203.52795 0Z" fill="#ffffff" p-id="39924"></path><path d="M101.763975 915.875776m-101.763975 0a101.763975 101.763975 0 1 0 203.52795 0 101.763975 101.763975 0 1 0-203.52795 0Z" fill="#ffffff" p-id="39925"></path><path d="M864.993789 101.763975m-101.763975 0a101.763975 101.763975 0 1 0 203.52795 0 101.763975 101.763975 0 1 0-203.52795 0Z" fill="#ffffff" p-id="39926"></path></svg>