<?xml version="1.0" standalone="no"?><!DOCTYPE svg PUBLIC "-//W3C//DTD SVG 1.1//EN" "http://www.w3.org/Graphics/SVG/1.1/DTD/svg11.dtd"><svg t="1758454811256" class="icon" viewBox="0 0 1024 1024" version="1.1" xmlns="http://www.w3.org/2000/svg" p-id="42614" xmlns:xlink="http://www.w3.org/1999/xlink" width="16" height="16"><path d="M522.688 665.6l278.336 250.496a16 16 0 0 1-10.688 27.904H233.6a16 16 0 0 1-10.688-27.904l278.336-250.432a16 16 0 0 1 21.376 0z m421.312-201.6a16 16 0 0 1 16 16v64a16 16 0 0 1-16 16H80A16 16 0 0 1 64 544v-64a16 16 0 0 1 16-16h864z m-153.664-384a16 16 0 0 1 10.688 27.904L522.688 358.336a16 16 0 0 1-21.376 0L222.976 107.904a16 16 0 0 1 10.688-27.904z" fill="#ffffff" p-id="42615"></path></svg>