<?xml version="1.0" standalone="no"?><!DOCTYPE svg PUBLIC "-//W3C//DTD SVG 1.1//EN" "http://www.w3.org/Graphics/SVG/1.1/DTD/svg11.dtd"><svg t="1758453796401" class="icon" viewBox="0 0 1024 1024" version="1.1" xmlns="http://www.w3.org/2000/svg" p-id="11723" xmlns:xlink="http://www.w3.org/1999/xlink" width="16" height="16"><path d="M818.941862 446.600409l-358.098839-32.740465V230.206396a76.735465 76.735465 0 0 0-153.470931 0v397.489712l-64.969361-112.54535a102.313954 102.313954 0 0 0-177.00314 102.313954l204.627908 354.517851a102.313954 102.313954 0 0 0 102.313954 51.156977h454.785525a102.313954 102.313954 0 0 0 102.313954-93.105698l29.159477-316.150118A153.470931 153.470931 0 0 0 818.941862 446.600409z" fill="#ffffff" p-id="11724"></path><path d="M282.305173 306.941862A126.869303 126.869303 0 0 1 256.215115 230.206396a127.892442 127.892442 0 0 1 255.784885 0A126.869303 126.869303 0 0 1 485.909942 306.941862l81.339593 61.388372A228.160117 228.160117 0 0 0 614.313954 230.206396a230.206396 230.206396 0 0 0-460.412793 0 228.160117 228.160117 0 0 0 46.552849 137.612269z" fill="#ffffff" p-id="11725"></path></svg>